<svg xmlns="http://www.w3.org/2000/svg" width="1354" height="205" fill="none"><path fill="url(#a)" fill-opacity=".2" d="M0 49C0 26.909 17.909 9 40 9h1274c22.09 0 40 17.909 40 40v107c0 22.091-17.91 40-40 40H40c-22.091 0-40-17.909-40-40V49Z"/><path fill="#7156FB" fill-rule="evenodd" d="M390 10h924c21.54 0 39 17.46 39 39v107c0 21.539-17.46 39-39 39h-50v1h50c22.09 0 40-17.909 40-40V49c0-22.091-17.91-40-40-40H390v1ZM90 10V9H40C17.909 9 0 26.909 0 49v107c0 22.091 17.909 40 40 40h924v-1H40c-21.54 0-39-17.461-39-39V49c0-21.54 17.46-39 39-39h50Z" clip-rule="evenodd"/><path stroke="#7156FB" stroke-dasharray="2 2" d="M1014 195.5h250M90 9.5h250"/><path fill="#7156FB" d="M976.479 205H970l5.514-9.004L970 187h6.479l5.521 8.996-5.521 9.004Z"/><path fill="#7156FB" fill-opacity=".7" d="M988.486 205H982l5.521-9.004L982 187h6.486l5.514 8.996-5.514 9.004Z"/><path fill="#7156FB" fill-opacity=".3" d="M1000.49 205H994l5.514-9.004L994 187h6.49l5.51 8.996-5.51 9.004Z"/><path fill="#7156FB" d="M375.521 0H382l-5.514 9.004L382 18h-6.479L370 9.004 375.521 0Z"/><path fill="#7156FB" fill-opacity=".7" d="M363.514 0H370l-5.521 9.004L370 18h-6.486L358 9.004 363.514 0Z"/><path fill="#7156FB" fill-opacity=".3" d="M351.514 0H358l-5.514 9.004L358 18h-6.486L346 9.004 351.514 0Z"/><defs><linearGradient id="a" x1="677" x2="677" y1="9" y2="196" gradientUnits="userSpaceOnUse"><stop stop-color="#7156FB"/><stop offset="1" stop-color="#FF0DFF"/></linearGradient></defs></svg>